<svg width="88" height="12" viewBox="0 0 88 12" fill="none" xmlns="http://www.w3.org/2000/svg">
<path d="M5.95333 0.311157L7.7929 4.03794L11.9067 4.63923L8.92999 7.53849L9.63248 11.6344L5.95333 9.69955L2.27417 11.6344L2.97666 7.53849L0 4.63923L4.11375 4.03794L5.95333 0.311157Z" fill="#FF971D"/>
<path d="M24.8599 0.311157L26.6995 4.03794L30.8133 4.63923L27.8366 7.53849L28.5391 11.6344L24.8599 9.69955L21.1808 11.6344L21.8833 7.53849L18.9066 4.63923L23.0204 4.03794L24.8599 0.311157Z" fill="#FF971D"/>
<path d="M43.7667 0.311157L45.6063 4.03794L49.72 4.63923L46.7433 7.53849L47.4458 11.6344L43.7667 9.69955L40.0875 11.6344L40.79 7.53849L37.8134 4.63923L41.9271 4.03794L43.7667 0.311157Z" fill="#FF971D"/>
<path d="M62.6733 0.311157L64.5129 4.03794L68.6266 4.63923L65.65 7.53849L66.3525 11.6344L62.6733 9.69955L58.9941 11.6344L59.6966 7.53849L56.72 4.63923L60.8337 4.03794L62.6733 0.311157Z" fill="#FF971D"/>
<path d="M81.5799 0.311157L83.4195 4.03794L87.5332 4.63923L84.5566 7.53849L85.2591 11.6344L81.5799 9.69955L77.9008 11.6344L78.6033 7.53849L75.6266 4.63923L79.7403 4.03794L81.5799 0.311157Z" fill="#DEDEDE"/>
</svg>
