<svg width="91" height="15" viewBox="0 0 91 15" fill="none" xmlns="http://www.w3.org/2000/svg">
<path d="M7.14376 1.19067L8.98333 4.91746L13.0971 5.51874L10.1204 8.41801L10.8229 12.5139L7.14376 10.5791L3.4646 12.5139L4.16709 8.41801L1.19043 5.51874L5.30418 4.91746L7.14376 1.19067Z" fill="black"/>
<path d="M26.1944 1.19067L28.034 4.91746L32.1477 5.51874L29.1711 8.41801L29.8736 12.5139L26.1944 10.5791L22.5153 12.5139L23.2178 8.41801L20.2411 5.51874L24.3548 4.91746L26.1944 1.19067Z" fill="black"/>
<path d="M45.2451 1.19067L47.0847 4.91746L51.1984 5.51874L48.2217 8.41801L48.9242 12.5139L45.2451 10.5791L41.5659 12.5139L42.2684 8.41801L39.2917 5.51874L43.4055 4.91746L45.2451 1.19067Z" fill="black"/>
<path d="M64.2956 1.19067L66.1352 4.91746L70.2489 5.51874L67.2723 8.41801L67.9748 12.5139L64.2956 10.5791L60.6165 12.5139L61.3189 8.41801L58.3423 5.51874L62.456 4.91746L64.2956 1.19067Z" fill="black"/>
<path d="M83.3463 1.19067L85.1858 4.91746L89.2996 5.51874L86.3229 8.41801L87.0254 12.5139L83.3463 10.5791L79.6671 12.5139L80.3696 8.41801L77.3929 5.51874L81.5067 4.91746L83.3463 1.19067Z" fill="#DEDEDE"/>
</svg>
